<?xml version="1.0" standalone="no"?>
<!DOCTYPE svg PUBLIC "-//W3C//DTD SVG 20010904//EN"
 "http://www.w3.org/TR/2001/REC-SVG-20010904/DTD/svg10.dtd">
<svg version="1.0" xmlns="http://www.w3.org/2000/svg"
 width="5905.000000pt" height="5905.000000pt" viewBox="0 0 5905.000000 5905.000000"
 preserveAspectRatio="xMidYMid meet">
<metadata>
Created by potrace 1.14, written by Peter Selinger 2001-2017
</metadata>
<g transform="translate(0.000000,5905.000000) scale(0.100000,-0.100000)"
fill="#000000" stroke="none">
<path d="M38495 41269 c-149 -33 -285 -129 -370 -264 -18 -27 -79 -142 -135
-255 -93 -185 -191 -370 -249 -472 -11 -21 -30 -55 -42 -75 -242 -431 -559
-835 -794 -1010 -141 -106 -332 -165 -530 -166 -48 0 -135 8 -218 19 -51 7
-97 12 -187 19 -41 3 -100 10 -130 15 -53 9 -192 24 -330 35 -36 3 -83 8 -105
10 -99 11 -248 23 -375 30 -47 3 -107 7 -135 10 -51 4 -174 12 -325 20 -486
27 -1550 27 -1860 0 -25 -2 -92 -6 -150 -10 -129 -7 -261 -18 -380 -30 -19 -2
-64 -6 -100 -9 -145 -13 -551 -66 -699 -91 -13 -2 -45 -8 -70 -12 -25 -4 -48
-8 -51 -8 -3 -1 -30 -5 -60 -9 -30 -5 -64 -10 -75 -12 -11 -3 -69 -13 -130
-24 -155 -27 -303 -55 -419 -79 -54 -12 -108 -23 -120 -25 -11 -2 -104 -25
-206 -51 -102 -26 -195 -49 -208 -51 -13 -3 -113 29 -235 74 -209 78 -367 132
-622 210 -112 35 -198 59 -450 128 -52 14 -547 130 -587 138 -28 5 -133 24
-173 31 -16 2 -41 7 -55 10 -14 3 -36 7 -50 9 -14 2 -64 11 -110 20 -77 14
-239 38 -345 52 -22 2 -51 7 -65 9 -14 2 -45 7 -70 10 -25 3 -56 8 -70 10 -14
2 -54 7 -90 10 -36 3 -81 8 -100 10 -19 2 -64 7 -100 10 -36 3 -81 8 -100 11
-62 8 -199 17 -465 31 -310 16 -1194 9 -1415 -12 -19 -2 -80 -6 -135 -10 -55
-3 -111 -8 -125 -10 -14 -2 -59 -6 -100 -10 -41 -4 -88 -9 -105 -11 -16 -2
-55 -6 -85 -9 -30 -3 -71 -8 -91 -11 -20 -3 -59 -7 -85 -9 -68 -7 -119 -14
-214 -30 -16 -3 -42 -7 -57 -9 -228 -35 -320 -50 -383 -63 -41 -8 -86 -17
-100 -19 -14 -2 -54 -11 -90 -19 -36 -8 -81 -17 -100 -20 -19 -3 -84 -17 -145
-31 -60 -14 -117 -27 -125 -29 -8 -2 -51 -12 -95 -24 -44 -11 -91 -22 -105
-25 -20 -4 -118 -31 -330 -91 -53 -15 -313 -95 -350 -108 -211 -73 -398 -139
-415 -147 -11 -5 -83 -34 -160 -64 -192 -75 -318 -128 -427 -179 -51 -24 -127
-59 -168 -77 -97 -45 -445 -221 -533 -271 -38 -22 -70 -39 -73 -39 -2 0 -36
-20 -76 -44 -40 -23 -140 -83 -223 -132 -82 -49 -154 -92 -160 -96 -5 -5 -64
-43 -130 -85 -104 -68 -176 -116 -300 -203 -96 -67 -407 -301 -425 -320 -3 -3
-40 -34 -84 -69 -43 -35 -90 -73 -104 -85 -42 -35 -176 -150 -188 -161 -6 -5
-53 -48 -105 -95 -213 -193 -455 -435 -644 -645 -49 -55 -93 -102 -96 -105
-21 -19 -271 -332 -364 -455 -199 -265 -434 -617 -560 -840 -167 -294 -329
-616 -414 -820 -23 -55 -46 -109 -51 -120 -95 -203 -313 -900 -356 -1139 -3
-16 -7 -32 -9 -35 -2 -4 -6 -26 -10 -51 -4 -25 -8 -47 -10 -50 -2 -3 -6 -21
-9 -40 -3 -19 -8 -46 -11 -60 -3 -14 -16 -92 -30 -175 -27 -168 -34 -219 -49
-380 -5 -44 -10 -93 -12 -110 -27 -202 -26 -912 1 -1170 2 -22 7 -67 10 -99 3
-33 8 -74 10 -90 2 -17 7 -53 10 -81 5 -43 32 -217 51 -335 4 -27 61 -303 79
-380 53 -240 202 -721 279 -905 7 -16 32 -79 56 -140 23 -60 57 -141 75 -180
17 -38 42 -95 56 -125 28 -64 188 -383 244 -485 154 -282 484 -797 577 -899
10 -11 18 -23 18 -27 0 -4 6 -14 13 -21 6 -7 39 -49 71 -93 60 -81 301 -378
345 -425 13 -14 53 -59 90 -99 105 -119 460 -480 545 -556 148 -132 256 -235
274 -261 20 -30 72 -135 116 -235 77 -177 258 -815 379 -1344 17 -73 57 -241
108 -455 16 -69 31 -134 33 -145 23 -121 240 -962 288 -1115 65 -209 148 -437
199 -545 26 -56 100 -187 109 -195 3 -3 13 -15 22 -28 22 -32 101 -113 133
-137 42 -31 116 -71 156 -84 69 -22 85 -24 189 -24 89 0 115 4 173 26 79 31
147 75 202 131 83 86 91 99 233 382 350 695 625 1112 937 1418 173 170 328
251 540 281 52 7 232 8 243 1 4 -2 45 -7 92 -11 46 -3 87 -8 90 -10 3 -2 43
-6 90 -9 47 -4 99 -8 115 -11 17 -2 73 -7 125 -10 52 -3 118 -8 145 -10 98 -8
322 -21 505 -30 575 -27 1832 -27 2535 0 438 16 588 24 755 40 25 2 74 7 110
10 36 3 76 8 90 10 14 2 54 7 90 10 36 4 128 15 205 26 183 26 205 29 235 35
14 2 68 11 120 20 178 29 495 95 716 150 l221 55 229 -85 c263 -97 707 -241
834 -271 8 -2 58 -15 110 -30 96 -27 385 -100 430 -109 14 -2 68 -14 120 -26
100 -22 228 -48 370 -74 47 -9 94 -18 105 -20 11 -2 40 -7 65 -11 25 -4 52 -9
60 -10 18 -3 96 -15 130 -20 14 -2 61 -9 105 -15 44 -7 94 -13 110 -15 17 -1
48 -5 70 -9 40 -6 97 -13 157 -21 18 -2 67 -7 108 -10 41 -4 86 -8 100 -10 55
-8 237 -23 340 -29 41 -3 131 -8 200 -13 261 -16 1166 -9 1450 12 25 2 86 6
135 10 50 3 106 8 125 10 19 2 67 7 105 10 39 4 81 8 95 10 14 2 50 6 80 10
30 3 89 10 130 15 41 5 95 12 120 14 46 5 105 14 150 22 14 2 43 7 65 9 104
14 403 67 515 90 69 15 136 29 150 32 22 4 144 30 180 38 8 2 74 18 145 35 72
17 137 33 145 35 172 38 772 227 1055 333 140 52 497 198 595 244 52 24 124
57 160 73 69 31 457 226 575 290 63 34 97 54 160 92 11 6 61 35 110 64 275
158 652 410 910 607 75 57 335 262 351 277 6 5 35 30 64 55 54 45 211 182 241
210 8 8 45 41 80 74 137 125 459 449 564 566 247 277 411 483 622 780 56 80
106 150 111 155 12 16 217 336 240 375 11 19 59 103 107 185 83 144 267 505
332 650 34 77 101 240 157 381 44 112 157 450 186 559 12 44 30 112 41 150 47
173 115 490 135 625 2 19 7 46 9 60 3 14 7 41 10 60 3 19 7 46 10 60 3 14 7
51 10 83 4 32 8 67 10 78 2 11 7 51 10 89 3 38 8 79 10 92 27 137 27 1009 0
1203 -2 17 -6 53 -9 80 -12 123 -19 170 -42 325 -123 811 -387 1597 -789 2350
-31 58 -69 125 -83 150 -15 25 -29 50 -32 55 -3 6 -38 66 -79 135 -151 254
-460 697 -631 904 -158 192 -248 297 -328 386 -119 131 -514 526 -642 641 -58
52 -119 109 -137 128 -88 93 -209 403 -339 873 -37 134 -157 606 -168 663 -4
19 -74 312 -152 640 -20 83 -37 157 -39 165 -12 60 -118 480 -175 695 -140
522 -266 858 -393 1040 -38 55 -131 146 -186 182 -111 74 -284 109 -406 82z
m163 -1621 c39 -117 103 -314 142 -438 206 -649 267 -837 281 -862 5 -10 9
-22 9 -28 0 -32 265 -762 325 -895 7 -16 22 -52 33 -80 78 -198 281 -583 338
-642 7 -7 21 -27 33 -45 38 -62 166 -173 341 -298 96 -68 181 -130 190 -137 8
-7 78 -63 155 -124 115 -91 252 -205 275 -229 3 -3 43 -39 90 -80 131 -115
375 -355 490 -479 148 -162 197 -218 372 -436 5 -5 20 -23 34 -40 14 -16 33
-41 42 -55 9 -14 58 -81 108 -150 80 -110 334 -501 334 -513 0 -3 30 -58 67
-123 225 -402 424 -901 544 -1364 51 -199 115 -521 134 -679 4 -30 8 -61 10
-70 1 -9 6 -54 10 -101 4 -46 9 -96 11 -110 23 -172 23 -758 0 -940 -4 -31
-18 -164 -22 -205 -1 -16 -4 -43 -7 -60 -3 -16 -8 -52 -12 -78 -3 -26 -10 -70
-15 -97 -5 -27 -12 -69 -15 -93 -5 -37 -44 -226 -60 -290 -2 -10 -18 -75 -35
-145 -63 -258 -213 -684 -336 -952 -381 -832 -955 -1594 -1694 -2250 -68 -61
-84 -75 -135 -118 -11 -10 -65 -53 -120 -97 -55 -44 -102 -82 -105 -86 -20
-22 -405 -300 -565 -406 -178 -118 -612 -383 -629 -383 -2 0 -46 -24 -97 -53
-52 -29 -188 -99 -304 -156 -115 -57 -218 -107 -227 -112 -65 -33 -348 -155
-523 -226 -115 -46 -219 -88 -230 -93 -118 -56 -918 -313 -1135 -365 -8 -2
-59 -15 -113 -30 -54 -15 -106 -28 -115 -30 -9 -2 -78 -18 -152 -35 -74 -17
-146 -34 -159 -36 -12 -3 -51 -11 -85 -19 -33 -8 -122 -26 -196 -41 -74 -14
-144 -28 -155 -30 -11 -2 -74 -13 -140 -25 -66 -11 -131 -22 -145 -25 -14 -2
-44 -7 -66 -10 -23 -2 -53 -7 -65 -9 -13 -3 -44 -7 -69 -11 -25 -3 -70 -9
-100 -14 -30 -5 -80 -12 -110 -15 -30 -3 -65 -7 -78 -10 -12 -2 -54 -7 -92
-10 -38 -3 -77 -8 -87 -9 -18 -4 -135 -14 -229 -21 -27 -2 -78 -6 -114 -9
-279 -24 -471 -31 -960 -31 -417 0 -650 6 -770 20 -19 2 -82 7 -140 11 -58 3
-112 8 -121 9 -8 2 -55 6 -105 10 -49 4 -100 8 -114 10 -14 2 -56 6 -95 10
-38 3 -86 8 -106 11 -20 2 -54 6 -75 9 -21 2 -84 11 -139 19 -55 8 -120 18
-145 21 -25 4 -121 20 -215 36 -227 39 -219 37 -308 55 -42 8 -89 18 -104 20
-28 5 -157 33 -183 39 -8 2 -52 12 -98 21 -46 9 -79 20 -75 24 4 4 63 35 130
69 261 133 529 283 778 439 146 91 392 255 500 333 147 106 190 139 394 298
361 280 843 742 1171 1120 30 35 60 69 65 75 6 6 32 38 60 71 27 33 52 62 55
65 34 31 360 463 420 556 8 12 62 94 120 181 58 87 110 167 117 178 303 499
482 857 658 1315 124 323 240 703 301 985 9 39 17 79 20 90 2 11 6 31 9 44 2
14 9 47 15 75 6 28 12 62 15 76 6 30 26 147 30 175 2 11 6 39 9 62 8 51 12 82
20 148 4 28 8 64 11 80 2 17 7 68 11 115 3 47 8 94 10 105 7 36 18 358 18 520
0 152 -10 427 -19 525 -2 25 -7 77 -10 115 -3 39 -8 84 -10 100 -3 17 -9 68
-15 115 -19 146 -20 153 -35 225 -7 39 -17 88 -21 110 -4 22 -8 45 -9 50 -2 6
-12 59 -24 119 -22 109 -62 269 -107 426 -37 128 -154 477 -170 508 -8 15 -14
32 -14 38 0 39 -292 671 -386 834 -221 386 -277 475 -460 735 -154 219 -309
420 -444 576 -189 218 -277 314 -436 474 -265 267 -346 341 -683 631 -41 34
-288 228 -371 290 -478 358 -1006 682 -1569 965 -97 49 -167 89 -156 89 11 1
29 3 40 5 11 3 45 7 75 11 30 3 63 8 73 10 10 2 48 6 85 10 36 3 75 8 86 10
11 2 56 6 100 10 45 3 83 8 86 9 30 17 711 25 990 11 299 -15 454 -24 565 -31
39 -3 111 -7 160 -10 110 -7 188 -13 280 -19 39 -3 104 -8 145 -11 41 -3 95
-8 120 -10 25 -2 77 -7 115 -10 130 -10 200 -16 240 -20 22 -3 72 -7 110 -10
39 -3 89 -7 112 -10 23 -3 68 -8 100 -10 32 -3 78 -8 103 -10 25 -3 72 -8 105
-10 33 -3 90 -10 127 -15 37 -6 71 -9 75 -8 5 1 35 -2 68 -6 33 -5 76 -10 95
-12 19 -2 60 -6 90 -10 30 -3 66 -7 80 -9 14 -1 47 -5 74 -9 26 -4 69 -9 95
-11 48 -5 92 -11 238 -30 23 -3 55 -7 70 -9 61 -9 199 -27 223 -31 14 -2 48
-7 75 -11 28 -3 57 -8 67 -10 9 -1 38 -6 65 -9 26 -4 127 -20 223 -37 433 -73
815 -20 1165 161 212 110 386 251 620 503 227 244 464 582 665 946 25 45 46
82 47 82 1 0 33 -96 71 -212z m-12548 -1201 c30 -3 105 -8 165 -12 61 -3 128
-8 150 -11 22 -2 72 -6 110 -9 39 -2 93 -7 120 -10 28 -2 77 -7 110 -10 121
-12 284 -30 345 -40 14 -2 50 -7 80 -10 30 -4 64 -9 75 -11 10 -2 37 -6 60 -9
22 -3 67 -11 100 -16 33 -6 71 -12 85 -14 14 -2 41 -6 60 -10 54 -9 143 -25
165 -29 11 -2 58 -11 105 -20 47 -9 94 -18 105 -20 148 -31 271 -58 320 -69
l60 -14 -100 -50 c-55 -27 -125 -63 -155 -80 -30 -17 -95 -52 -145 -78 -772
-413 -1541 -983 -2159 -1601 -552 -550 -1039 -1181 -1402 -1812 -89 -156 -99
-174 -190 -348 -154 -298 -349 -753 -424 -994 -5 -14 -25 -77 -45 -140 -102
-315 -205 -737 -241 -985 -2 -16 -6 -41 -9 -55 -5 -28 -20 -141 -39 -300 -2
-14 -7 -61 -11 -105 -4 -44 -9 -93 -11 -110 -22 -225 -21 -929 0 -1042 2 -10
7 -58 10 -108 4 -49 9 -97 11 -105 2 -8 6 -42 9 -75 8 -73 23 -173 43 -278 8
-42 17 -90 19 -105 48 -273 153 -661 268 -987 122 -349 338 -812 535 -1149 44
-76 81 -143 81 -147 0 -5 4 -9 9 -9 5 0 11 -8 15 -17 3 -10 28 -52 55 -93 28
-41 55 -84 60 -95 6 -11 28 -45 50 -75 22 -30 70 -100 108 -155 57 -84 86
-123 170 -230 113 -143 229 -288 253 -315 39 -43 60 -67 130 -150 150 -177
545 -572 755 -754 44 -39 85 -75 90 -80 6 -6 26 -23 45 -38 19 -15 53 -43 75
-63 44 -40 374 -301 442 -350 23 -16 89 -64 148 -105 58 -41 132 -93 163 -115
112 -80 482 -314 612 -387 25 -14 86 -49 135 -78 132 -77 226 -126 458 -243
141 -71 203 -107 190 -110 -10 -3 -45 -8 -78 -12 -33 -3 -71 -8 -85 -10 -37
-7 -104 -13 -210 -21 -52 -3 -106 -8 -120 -10 -183 -24 -856 -24 -1295 1 -219
12 -277 15 -340 20 -38 3 -110 7 -160 10 -49 3 -119 8 -155 10 -126 10 -186
14 -265 20 -44 3 -100 8 -125 10 -25 2 -75 7 -112 10 -38 3 -98 7 -135 10 -38
3 -90 8 -118 11 -70 7 -129 12 -208 19 -37 4 -76 8 -85 10 -9 1 -53 6 -97 9
-44 4 -96 9 -115 11 -19 2 -64 7 -100 11 -36 3 -72 7 -80 9 -8 2 -50 6 -93 10
-43 3 -86 8 -95 9 -9 2 -46 7 -82 11 -36 3 -78 8 -95 10 -16 2 -55 7 -85 10
-30 3 -66 8 -80 10 -14 2 -47 6 -75 10 -27 3 -66 7 -85 9 -19 3 -59 8 -89 11
-30 4 -61 8 -70 10 -9 1 -41 6 -71 10 -30 4 -62 9 -70 10 -8 1 -40 6 -70 10
-67 8 -107 14 -140 20 -14 2 -45 7 -70 10 -25 3 -110 17 -190 30 -80 13 -167
27 -195 31 -73 9 -279 11 -349 2 -34 -4 -86 -10 -116 -14 -85 -10 -275 -61
-375 -101 -212 -84 -369 -183 -546 -343 -316 -287 -571 -614 -846 -1087 l-100
-173 -21 58 c-24 69 -111 336 -182 562 -79 249 -162 506 -261 805 -110 335
-110 336 -119 360 -49 133 -62 171 -85 235 -15 41 -30 84 -35 95 -4 11 -15 38
-23 60 -238 616 -420 960 -604 1137 -39 38 -164 133 -312 236 -104 74 -418
322 -510 405 -31 27 -72 64 -91 81 -112 99 -148 132 -280 261 -129 126 -239
241 -382 400 -25 28 -77 88 -114 135 -38 47 -77 94 -87 105 -18 19 -124 160
-238 315 -87 118 -278 421 -364 575 -264 477 -480 1027 -591 1505 -14 58 -27
114 -30 125 -2 11 -7 34 -10 50 -3 17 -9 48 -14 70 -5 22 -11 58 -14 80 -4 22
-8 47 -11 55 -2 8 -6 38 -10 65 -3 28 -8 57 -10 65 -2 8 -6 35 -9 60 -3 25
-10 83 -15 130 -27 225 -34 355 -34 610 -1 187 8 419 18 495 2 16 7 57 10 90
11 108 16 150 20 175 3 14 7 48 11 75 13 109 74 434 94 500 5 17 12 44 15 60
4 24 31 127 69 265 27 98 135 403 172 487 8 17 14 34 14 37 0 13 100 236 175
391 153 316 366 665 586 961 87 119 251 328 269 344 3 3 32 37 65 75 33 39 79
90 102 115 23 25 51 56 63 70 100 117 512 512 656 630 186 152 251 203 369
292 77 58 196 144 265 191 69 48 130 91 135 95 6 5 15 11 20 13 6 2 56 34 112
71 429 283 1031 598 1563 817 69 29 143 60 165 69 21 9 42 17 45 18 5 1 13 4
102 40 117 49 518 186 738 254 74 23 155 48 180 55 25 8 63 19 85 24 22 5 74
19 115 31 41 12 82 23 90 25 8 2 40 10 70 19 30 9 141 36 245 60 161 38 222
51 366 81 9 2 74 15 145 29 113 22 170 32 274 51 105 18 212 35 250 40 25 3
56 7 70 10 28 5 57 9 180 25 151 19 300 36 415 46 39 4 84 8 100 9 17 2 77 7
135 10 58 4 121 8 140 10 19 2 105 7 190 10 85 4 156 8 158 10 5 4 979 -3
1042 -8z m2867 -491 c686 -200 1481 -536 2113 -893 309 -175 665 -405 943
-610 95 -69 174 -129 177 -132 3 -3 61 -51 130 -106 99 -79 282 -235 310 -265
3 -3 25 -23 50 -44 25 -21 110 -103 190 -181 133 -130 187 -186 349 -360 217
-231 540 -660 743 -985 370 -593 668 -1292 814 -1910 11 -49 75 -369 79 -394
5 -36 14 -100 21 -136 2 -14 6 -45 9 -70 3 -25 8 -56 10 -70 3 -14 7 -54 10
-90 4 -36 8 -78 10 -95 26 -214 26 -867 0 -1100 -2 -16 -6 -57 -10 -90 -3 -33
-8 -77 -11 -98 -3 -21 -7 -53 -8 -70 -2 -18 -7 -52 -11 -77 -4 -25 -8 -54 -10
-65 -4 -30 -24 -146 -30 -175 -5 -25 -21 -114 -31 -167 -3 -16 -10 -46 -16
-68 -5 -22 -12 -51 -15 -65 -31 -174 -204 -727 -288 -925 -7 -16 -36 -86 -65
-155 -207 -493 -487 -985 -829 -1450 -100 -137 -292 -377 -385 -480 -432 -483
-788 -809 -1268 -1161 -102 -75 -479 -329 -508 -343 -8 -4 -24 -12 -35 -19
-150 -91 -244 -146 -330 -192 -108 -59 -414 -213 -490 -247 -44 -20 -110 -51
-148 -67 -37 -17 -73 -31 -80 -31 -7 0 -17 -4 -23 -9 -5 -5 -36 -20 -69 -33
-69 -27 -61 -29 -260 33 -314 98 -720 241 -860 304 -16 8 -70 30 -120 50 -49
20 -114 48 -143 61 -29 13 -55 24 -57 24 -11 0 -304 139 -475 224 -364 182
-682 369 -1070 629 -116 78 -176 121 -364 260 -83 62 -352 280 -426 346 -46
42 -103 92 -125 111 -48 42 -208 195 -319 306 -67 68 -123 127 -281 298 -12
13 -114 133 -136 161 -10 11 -36 43 -60 70 -69 80 -304 398 -388 524 -220 330
-427 707 -581 1058 -33 76 -65 147 -70 158 -83 188 -262 746 -295 925 -3 14
-7 34 -9 45 -20 91 -46 218 -51 255 -3 25 -8 52 -10 60 -3 8 -7 35 -10 60 -3
25 -8 52 -10 60 -2 8 -7 40 -10 70 -2 30 -7 64 -9 75 -2 11 -7 54 -11 95 -4
41 -9 86 -10 100 -26 210 -26 909 0 1100 3 19 7 55 9 80 12 109 18 162 21 178
2 10 7 45 11 77 4 33 8 62 9 65 2 8 16 91 21 122 8 51 43 222 64 318 12 52 24
105 26 116 12 63 148 518 171 574 3 8 7 20 9 25 1 6 16 46 32 90 238 644 584
1271 1019 1845 79 104 293 365 353 430 8 9 51 56 95 105 147 162 443 454 571
562 58 49 89 76 125 107 222 197 748 573 1044 746 316 185 611 338 875 453
213 92 273 116 282 111 3 -2 59 -19 125 -38z"/>
<path d="M29418 35895 c-2 -2 -32 -6 -68 -9 -542 -55 -1038 -327 -1380 -756
-120 -149 -255 -388 -311 -545 -25 -72 -68 -212 -73 -240 -3 -11 -9 -41 -15
-66 -6 -25 -13 -66 -16 -90 -4 -24 -9 -55 -12 -69 -4 -14 -8 -693 -9 -1510 -3
-1563 -3 -1567 41 -1751 9 -36 17 -72 19 -80 4 -23 36 -133 45 -154 5 -11 23
-58 41 -104 60 -156 173 -350 287 -496 68 -86 256 -273 338 -336 164 -126 390
-251 565 -314 91 -32 280 -82 347 -91 26 -3 57 -8 68 -10 113 -22 449 -22 551
0 12 2 39 7 60 11 75 11 91 15 189 40 417 108 824 382 1088 730 183 242 314
529 371 811 44 221 44 207 44 1699 0 816 -4 1456 -9 1505 -61 549 -321 1029
-749 1381 -240 197 -619 370 -905 414 -16 2 -41 7 -55 9 -68 13 -159 19 -297
21 -84 1 -154 1 -155 0z m298 -530 c164 -16 363 -73 509 -147 70 -35 201 -113
215 -128 3 -3 31 -25 62 -49 32 -24 98 -85 147 -136 220 -231 367 -542 407
-865 9 -71 11 -2781 3 -2880 -18 -198 -85 -438 -156 -552 -13 -21 -23 -40 -23
-43 0 -11 -68 -115 -123 -190 -152 -202 -366 -371 -599 -471 -203 -88 -361
-119 -598 -118 -189 0 -232 4 -355 35 -326 82 -607 261 -823 524 -137 168
-262 434 -297 636 -3 18 -7 35 -9 38 -17 28 -21 343 -21 1566 1 776 4 1437 9
1470 50 392 251 746 566 996 41 33 80 64 87 69 7 6 15 10 17 10 3 0 29 15 58
33 166 106 417 187 621 203 45 4 83 7 84 9 5 3 151 -3 219 -10z"/>
<path d="M29162 34430 c-4 -3 -7 -182 -7 -398 0 -341 2 -392 15 -393 19 -1
750 -1 770 0 13 1 15 52 15 396 0 256 -4 395 -10 396 -34 4 -778 3 -783 -1z"/>
<path d="M29164 32831 c-2 -2 -4 -181 -4 -398 0 -367 1 -393 18 -394 21 0 658
0 730 0 l52 1 0 398 0 398 -396 -1 c-217 0 -397 -2 -400 -4z"/>
<path d="M29163 31231 c-4 -3 -8 -183 -8 -399 l0 -392 50 0 c170 -1 556 -1
645 0 l105 0 -1 388 c-1 213 -2 392 -3 398 -1 11 -773 16 -788 5z"/>
<path d="M32097 31878 c-87 -15 -164 -80 -197 -165 -15 -40 -18 -68 -14 -139
3 -49 7 -102 9 -119 6 -40 6 -358 0 -415 -3 -25 -7 -70 -10 -100 -8 -94 -16
-141 -42 -265 -76 -369 -228 -684 -473 -980 -112 -135 -359 -344 -531 -447
-411 -248 -908 -379 -1409 -372 -114 1 -205 8 -271 19 -13 2 -42 6 -64 10
-251 37 -583 168 -815 322 -379 251 -687 632 -863 1069 -83 206 -146 442 -173
649 -3 28 -8 59 -10 69 -14 74 -20 313 -13 541 3 97 1 115 -19 156 -45 93
-124 148 -220 153 -75 5 -143 -18 -191 -64 -55 -53 -82 -110 -89 -194 -13
-142 -6 -516 12 -651 1 -11 6 -45 10 -75 4 -30 11 -77 16 -105 5 -27 11 -61
14 -75 23 -137 92 -376 157 -547 248 -653 731 -1203 1324 -1506 325 -166 713
-274 1042 -290 6 0 13 -7 15 -16 2 -9 3 -414 3 -901 l0 -885 -285 -5 c-268 -5
-287 -6 -325 -27 -47 -25 -96 -74 -121 -123 -26 -49 -26 -171 0 -224 26 -52
81 -104 136 -129 44 -20 59 -21 855 -21 l810 0 51 23 c96 42 155 133 156 240
1 72 -26 133 -80 187 -70 68 -103 74 -408 74 l-264 0 0 493 c-1 270 -1 678 -2
904 -1 227 1 415 3 418 3 2 23 7 45 10 21 3 54 8 72 11 17 3 47 7 65 9 17 3
43 7 57 10 14 3 36 7 50 10 796 153 1498 621 1895 1265 61 99 155 281 198 385
62 149 153 461 172 590 3 23 7 52 10 65 3 14 7 49 11 78 3 29 7 61 9 70 23
123 23 636 -1 782 -25 154 -159 253 -307 228z"/>
<path d="M22716 22322 c1 -125 2 -232 3 -238 1 -8 72 -11 236 -11 210 -1 235
1 236 16 1 9 2 116 3 238 l1 223 -240 0 -240 0 1 -228z"/>
<path d="M23313 22311 l0 -238 238 -1 239 0 0 239 0 239 -238 0 -239 0 0 -239z"/>
<path d="M23910 22311 l0 -239 240 0 240 1 0 239 0 238 -240 0 -240 0 0 -239z"/>
<path d="M25039 22513 c0 -46 0 -414 1 -429 0 -9 65 -11 238 -10 l237 1 1 238
1 237 -239 0 -238 0 -1 -37z"/>
<path d="M25638 22538 c-2 -7 -3 -114 -3 -238 l0 -225 238 -1 c130 -1 237 1
238 5 1 3 2 111 3 239 l1 232 -236 0 c-181 0 -238 -3 -241 -12z"/>
<path d="M26238 22548 c0 -2 -2 -109 -3 -239 l-2 -236 239 -1 238 0 0 239 0
239 -235 0 c-129 0 -236 -1 -237 -2z"/>
<path d="M26830 22311 l0 -239 238 2 237 1 3 238 2 237 -240 0 -240 0 0 -239z"/>
<path d="M27430 22515 c0 -19 -1 -96 -1 -170 0 -74 1 -166 1 -204 l0 -69 223
0 c122 0 229 2 238 4 14 4 16 33 15 239 l0 235 -238 0 -238 0 0 -35z"/>
<path d="M23315 21950 c-5 -10 -2 -470 4 -471 3 -1 111 -2 239 -3 l232 -1 -2
239 -3 239 -233 1 c-129 1 -235 -1 -237 -4z"/>
<path d="M26241 21950 c-4 -3 -7 -111 -7 -240 l1 -235 238 0 237 0 0 240 0
240 -231 0 c-127 0 -234 -2 -238 -5z"/>
<path d="M31533 21354 c-2 -6 -3 -46 -1 -89 l3 -79 88 -1 87 -1 0 91 0 90 -86
1 c-55 0 -88 -4 -91 -12z"/>
<path d="M31756 21360 c-1 -3 -2 -43 -2 -90 l1 -84 90 -1 91 -1 -1 91 0 90
-88 0 c-49 0 -90 -2 -91 -5z"/>
<path d="M31982 21275 l3 -90 88 0 88 0 -3 90 -3 90 -88 0 -88 0 3 -90z"/>
<path d="M32206 21361 c-2 -6 0 -145 3 -167 0 -6 34 -10 88 -9 l87 1 1 83 c0
45 -2 86 -5 89 -6 8 -170 10 -174 3z"/>
<path d="M32428 21311 c-2 -31 -2 -72 0 -91 l3 -36 87 1 87 1 3 87 c2 48 0 87
-5 88 -4 1 -45 2 -90 3 l-81 2 -4 -55z"/>
<path d="M33923 21357 c-8 -13 -7 -156 1 -165 4 -4 45 -7 91 -7 l84 0 -1 87
c-1 55 -5 88 -12 89 -51 6 -158 3 -163 -4z"/>
<path d="M23316 21351 c-2 -3 -4 -111 -3 -238 l0 -233 46 0 c43 -1 374 -1 414
0 16 0 17 18 17 238 l0 238 -236 0 c-129 0 -237 -2 -238 -5z"/>
<path d="M26239 21356 c-1 -1 -3 -108 -4 -238 l-2 -238 26 0 c24 -1 326 -1
414 0 l37 0 0 238 0 238 -235 0 c-129 0 -236 0 -236 0z"/>
<path d="M31530 21050 l0 -90 90 0 90 0 0 90 0 90 -90 0 -90 0 0 -90z"/>
<path d="M33919 21133 c-1 -11 -1 -123 0 -150 1 -22 5 -23 90 -23 l89 0 0 90
0 90 -89 0 c-49 0 -89 -3 -90 -7z"/>
<path d="M28549 20918 c-1 -2 -2 -42 -3 -90 -1 -88 -1 -88 24 -89 29 -1 130
-1 145 0 7 1 11 35 10 89 l0 87 -87 3 c-49 1 -88 1 -89 0z"/>
<path d="M28770 20829 c0 -52 4 -89 10 -90 6 0 39 0 75 0 36 0 72 0 80 0 12 1
15 18 15 91 l0 89 -90 -1 -90 0 0 -89z"/>
<path d="M28999 20918 c-1 -2 -3 -42 -4 -90 l-4 -88 40 -1 c50 -1 115 -1 132
0 9 1 12 25 12 89 l0 87 -88 3 c-48 2 -87 2 -88 0z"/>
<path d="M29766 20911 c-3 -3 -4 -44 -4 -89 0 -91 -7 -84 83 -84 19 0 49 1 65
1 l30 1 0 90 0 90 -85 -1 c-47 0 -87 -4 -89 -8z"/>
<path d="M29989 20917 c-1 -1 -2 -41 -3 -89 -2 -88 -2 -88 24 -89 29 -1 130
-1 146 0 6 1 10 33 10 89 l-1 87 -87 2 c-49 0 -89 0 -89 0z"/>
<path d="M30210 20829 c0 -52 4 -89 10 -90 6 0 39 0 75 0 36 0 72 0 80 0 12 1
15 18 15 90 l0 89 -90 0 -90 0 0 -89z"/>
<path d="M30433 20829 l-1 -89 39 -1 c50 -1 115 -1 132 0 9 1 12 26 12 91 l0
91 -90 -2 -91 -1 -1 -89z"/>
<path d="M31531 20829 c-1 -56 2 -89 8 -89 6 -1 46 -1 89 -2 l77 0 3 91 3 92
-89 -2 -89 -1 -2 -89z"/>
<path d="M33249 20917 c-1 -1 -2 -41 -3 -90 -1 -71 2 -87 14 -88 16 -1 110 -1
145 0 19 1 20 8 20 90 l1 89 -88 1 c-48 0 -88 0 -89 -2z"/>
<path d="M33470 20829 l0 -89 50 -1 c143 -3 130 -13 130 91 l0 91 -90 -2 -90
-1 0 -89z"/>
<path d="M33705 20912 c-6 -4 -11 -44 -12 -89 l0 -83 41 -1 c102 -3 123 -2
132 3 7 5 11 127 5 171 -1 9 -153 9 -166 -1z"/>
<path d="M33919 20907 c0 -7 -1 -47 -2 -89 l-2 -77 70 -3 c120 -5 114 -10 112
90 l-2 87 -87 2 c-62 1 -88 -2 -89 -10z"/>
<path d="M34516 20913 c-3 -4 -6 -44 -6 -89 l0 -83 43 -3 c23 -2 63 -1 90 0
l47 4 0 88 0 88 -84 0 c-46 0 -87 -2 -90 -5z"/>
<path d="M35410 20827 l0 -92 58 2 c31 0 72 2 89 2 l33 1 -1 89 -1 89 -89 1
-89 1 0 -93z"/>
<path d="M23317 20753 c-3 -5 -5 -113 -4 -240 l0 -233 238 0 239 0 0 240 0
240 -234 0 c-129 0 -237 -3 -239 -7z"/>
<path d="M26238 20758 c0 -2 -2 -110 -3 -240 l-2 -238 239 0 238 0 0 240 0
240 -235 0 c-129 0 -236 -1 -237 -2z"/>
<path d="M28329 20690 c-5 -3 -8 -43 -7 -88 1 -94 -4 -90 107 -88 l74 1 -2 85
c-1 47 -4 87 -7 89 -7 7 -154 7 -165 1z"/>
<path d="M29223 20687 c-5 -8 -6 -34 -4 -134 l1 -41 88 2 87 1 1 90 1 90 -84
0 c-47 0 -87 -4 -90 -8z"/>
<path d="M30663 20687 c-5 -8 -6 -34 -4 -133 l1 -42 88 2 87 2 2 74 c2 110 6
105 -88 105 -44 0 -83 -4 -86 -8z"/>
<path d="M31532 20605 l3 -90 88 -1 88 0 -3 90 -3 90 -88 1 -88 0 3 -90z"/>
<path d="M31768 20690 c-9 -3 -13 -31 -13 -90 l0 -85 90 0 90 0 0 83 c1 45 -2
86 -5 90 -6 8 -143 10 -162 2z"/>
<path d="M31980 20604 l0 -91 90 1 90 1 0 87 c0 51 -4 88 -10 89 -5 1 -46 2
-90 3 l-80 1 0 -91z"/>
<path d="M32211 20690 c-4 -3 -7 -43 -7 -90 l1 -85 87 -1 c54 0 88 3 90 10 2
6 3 38 2 71 -2 111 6 100 -85 100 -44 0 -84 -2 -88 -5z"/>
<path d="M33023 20684 c-2 -6 -3 -46 -1 -90 l3 -78 82 -2 c51 -2 85 2 90 9 7
12 6 157 -2 165 -11 11 -167 8 -172 -4z"/>
<path d="M33923 20684 c-2 -5 -5 -45 -6 -87 -2 -89 -7 -86 103 -83 l75 1 3 70
c4 113 6 110 -89 110 -48 0 -83 -4 -86 -11z"/>
<path d="M34514 20691 c-2 -2 -4 -43 -4 -90 l0 -86 89 -1 89 0 4 35 c1 20 1
61 -2 91 l-5 55 -83 0 c-46 0 -85 -2 -88 -4z"/>
<path d="M35414 20691 c-2 -2 -4 -43 -4 -91 l0 -86 88 1 87 0 0 89 0 89 -83 1
c-46 1 -85 -1 -88 -3z"/>
<path d="M28770 20381 l0 -89 74 -4 c112 -5 106 -10 106 93 l0 89 -90 0 -90 0
0 -89z"/>
<path d="M28994 20380 l-1 -90 88 0 c61 0 88 4 91 13 2 6 3 46 3 87 l0 75 -90
3 -91 3 0 -91z"/>
<path d="M29987 20463 c-2 -5 -3 -44 -2 -88 l1 -80 34 -5 c19 -3 60 -4 91 -2
l56 4 -1 89 -1 89 -87 0 c-48 0 -89 -3 -91 -7z"/>
<path d="M30210 20380 l0 -90 90 0 90 0 0 90 0 90 -90 0 -90 0 0 -90z"/>
<path d="M30433 20380 l0 -91 91 3 91 3 0 87 0 88 -91 0 -91 0 0 -90z"/>
<path d="M30659 20448 c-1 -36 -1 -121 0 -140 1 -16 12 -18 90 -18 l90 0 -1
90 -1 90 -89 0 c-84 0 -88 -1 -89 -22z"/>
<path d="M31530 20380 l0 -90 90 0 90 0 0 90 0 90 -90 0 -90 0 0 -90z"/>
<path d="M33027 20463 c-4 -3 -7 -44 -7 -90 l0 -83 90 0 90 0 1 40 c0 22 1 54
1 70 0 75 6 70 -85 70 -46 0 -87 -3 -90 -7z"/>
<path d="M33919 20448 c-1 -28 -1 -140 0 -150 1 -5 41 -8 91 -8 l90 0 -2 90
-1 90 -89 0 c-84 0 -88 -1 -89 -22z"/>
<path d="M34510 20380 l0 -90 89 0 c103 0 98 -6 93 106 l-4 74 -89 0 -89 0 0
-90z"/>
<path d="M35410 20380 l0 -90 90 0 90 0 -1 90 -1 90 -89 0 -89 0 0 -90z"/>
<path d="M28326 20240 c-2 -3 -4 -42 -4 -87 -1 -59 2 -83 11 -84 7 -1 47 -2
90 -3 l78 -3 -3 91 -3 91 -83 0 c-46 1 -85 -2 -86 -5z"/>
<path d="M29224 20238 c-7 -11 -8 -154 -1 -165 3 -5 43 -8 89 -8 l83 0 0 90 0
90 -83 1 c-46 0 -85 -3 -88 -8z"/>
<path d="M29765 20240 c-1 -3 -2 -43 -1 -90 l1 -84 85 -1 85 0 5 50 c3 27 3
68 2 91 l-4 41 -85 -1 c-47 -1 -86 -3 -88 -6z"/>
<path d="M30659 20216 c-2 -78 0 -139 6 -145 4 -3 44 -6 89 -6 l83 -1 0 88 c0
49 -2 88 -6 89 -3 0 -43 2 -88 4 l-83 2 -1 -31z"/>
<path d="M31532 20155 l3 -90 80 0 c44 -1 85 2 90 6 6 4 9 43 7 91 l-3 83 -90
0 -90 1 3 -91z"/>
<path d="M33026 20240 c-2 -3 -4 -42 -5 -86 -2 -94 -7 -90 108 -89 l74 0 1 90
1 91 -88 -1 c-49 0 -90 -2 -91 -5z"/>
<path d="M33922 20231 c-5 -12 -6 -65 -3 -143 1 -22 5 -23 89 -23 l87 0 2 88
c1 48 -2 88 -5 88 -4 1 -42 2 -86 3 -60 2 -79 -1 -84 -13z"/>
<path d="M34520 20240 c-7 -4 -10 -39 -8 -90 l3 -84 87 -1 c100 -2 96 -6 88
110 l-5 70 -77 1 c-43 0 -82 -3 -88 -6z"/>
<path d="M35410 20159 c0 -61 4 -88 13 -91 6 -2 46 -4 87 -4 l75 1 2 90 3 90
-90 0 -90 1 0 -87z"/>
<path d="M23314 19923 l1 -238 238 -1 237 0 0 238 0 238 -239 0 -238 0 1 -237z"/>
<path d="M26233 19921 l1 -238 235 1 236 1 3 238 2 237 -238 0 -239 0 0 -239z"/>
<path d="M28549 20018 c-5 -14 -4 -161 1 -168 4 -7 40 -10 91 -8 l84 3 1 88 1
87 -88 0 c-49 0 -89 -1 -90 -2z"/>
<path d="M28770 19930 l0 -90 90 0 90 0 0 90 0 90 -90 0 -90 0 0 -90z"/>
<path d="M28993 19930 l0 -90 89 0 c63 0 88 4 89 13 1 6 2 47 3 90 l1 77 -91
0 -90 0 -1 -90z"/>
<path d="M29985 19933 l0 -88 88 -3 c48 -1 88 1 88 5 1 4 3 45 4 91 l1 82 -91
0 -91 0 1 -87z"/>
<path d="M30210 19930 l0 -90 90 0 90 0 0 90 0 90 -90 0 -90 0 0 -90z"/>
<path d="M30433 19930 l0 -91 90 3 91 3 1 88 0 87 -91 0 -91 0 0 -90z"/>
<path d="M30659 20018 c-1 -4 -1 -129 0 -155 1 -22 5 -23 90 -23 l89 0 -1 90
-1 90 -88 0 c-48 0 -88 -1 -89 -2z"/>
<path d="M31530 19930 l0 -90 90 0 90 0 0 90 0 90 -90 0 -90 0 0 -90z"/>
<path d="M31756 19938 c1 -46 2 -87 3 -91 0 -4 40 -6 88 -5 l87 3 2 88 1 87
-91 0 -91 0 1 -82z"/>
<path d="M31980 19930 l0 -90 90 0 90 0 0 90 0 90 -90 0 -90 0 0 -90z"/>
<path d="M32204 19930 l0 -90 88 0 c63 0 88 4 89 13 0 6 2 47 3 90 l2 77 -91
0 -91 0 0 -90z"/>
<path d="M32428 19968 c-1 -29 -2 -70 0 -90 l3 -38 88 0 88 0 1 90 0 90 -88 0
-88 0 -4 -52z"/>
<path d="M33245 19933 l0 -88 88 -3 c48 -1 88 1 88 5 1 4 2 45 3 91 l2 82 -91
0 -91 0 1 -87z"/>
<path d="M33470 19930 l0 -90 90 0 90 0 0 90 0 90 -90 0 -90 0 0 -90z"/>
<path d="M33693 19930 l0 -90 89 0 c63 0 88 4 89 13 0 6 1 47 2 90 l2 77 -91
0 -90 0 -1 -90z"/>
<path d="M33919 20018 c-1 -4 -1 -139 0 -160 1 -16 12 -18 89 -18 l89 0 1 90
0 90 -89 0 c-49 0 -89 -1 -90 -2z"/>
<path d="M34736 19938 c1 -46 2 -87 3 -91 0 -4 40 -6 88 -5 l88 3 0 88 1 87
-91 0 -91 0 2 -82z"/>
<path d="M34960 19930 l0 -90 90 0 90 0 0 90 0 90 -90 0 -90 0 0 -90z"/>
<path d="M35186 19938 c1 -46 2 -86 3 -90 0 -5 39 -8 86 -8 47 0 85 3 86 8 0
4 2 44 3 90 l2 82 -91 0 -91 0 2 -82z"/>
<path d="M35410 19930 l0 -90 89 0 89 0 0 90 0 90 -89 0 -89 0 0 -90z"/>
<path d="M23328 19562 c-14 -3 -16 -32 -15 -238 0 -128 3 -235 6 -235 3 -1
111 -2 239 -3 l232 -1 0 240 0 240 -223 0 c-123 0 -231 -1 -239 -3z"/>
<path d="M26235 19545 c-2 -11 -3 -119 -2 -240 l2 -220 235 0 235 0 0 240 0
239 -233 1 c-225 0 -233 -1 -237 -20z"/>
<path d="M22719 18966 c-6 -5 -2 -469 4 -473 12 -7 457 -6 465 1 3 4 6 112 7
240 l0 233 -237 0 c-131 0 -238 -1 -239 -1z"/>
<path d="M23313 18728 c-1 -171 2 -238 11 -239 15 0 371 0 424 0 l42 1 0 238
0 239 -238 0 -239 -1 0 -238z"/>
<path d="M23910 18728 l0 -238 33 -1 c53 0 380 -1 415 0 l32 1 0 238 0 238
-240 1 -240 0 0 -239z"/>
<path d="M26233 18728 c0 -131 3 -238 6 -238 3 -1 111 -2 239 -3 l232 -2 0
241 0 241 -238 0 -238 -1 -1 -238z"/>
</g>
</svg>
