<?xml version="1.0" standalone="no"?>
<!DOCTYPE svg PUBLIC "-//W3C//DTD SVG 20010904//EN"
 "http://www.w3.org/TR/2001/REC-SVG-20010904/DTD/svg10.dtd">
<svg xmlns="http://www.w3.org/2000/svg"
     width="800.000000pt" height="800.000000pt" viewBox="0 0 800.000000 800.000000"
     preserveAspectRatio="xMidYMid meet">
<metadata>
Created by potrace 1.11, written by Peter Selinger 2001-2013
</metadata>
<g transform="translate(0.000000,800.000000) scale(0.100000,-0.100000)"
fill="#000000" stroke="none">
<path d="M3625 6067 c-224 -15 -514 -54 -608 -83 -129 -39 -307 -132 -365
-191 -9 -8 -45 -28 -81 -45 -36 -16 -84 -38 -106 -48 -22 -10 -58 -26 -80 -36
-100 -44 -238 -155 -321 -258 -74 -92 -138 -271 -163 -456 -27 -204 -35 -407
-21 -587 20 -288 94 -816 129 -938 19 -62 62 -263 71 -330 34 -244 73 -448 89
-470 4 -5 13 -30 20 -55 7 -24 26 -69 42 -98 16 -30 26 -59 22 -65 -3 -6 -1
-7 5 -3 6 3 16 -3 22 -15 11 -20 24 -36 67 -84 28 -32 103 -88 153 -115 90
-48 299 -78 434 -62 132 16 325 51 346 62 10 6 28 10 39 10 20 0 75 16 234 66
43 14 85 23 93 20 8 -3 14 -2 14 2 0 4 35 18 78 31 42 13 103 32 135 42 32 10
75 21 95 25 20 4 42 10 47 14 11 9 94 32 200 57 39 9 73 21 77 27 17 25 19 -8
4 -51 -10 -26 -25 -77 -35 -113 -10 -36 -20 -72 -24 -80 -6 -16 -33 -128 -47
-200 -22 -105 -22 -107 -1 -113 14 -3 34 11 73 50 56 58 209 198 297 273 30
25 59 50 65 55 6 6 60 53 120 105 60 52 121 106 135 119 14 12 54 46 89 74 63
51 75 56 242 103 30 8 57 18 60 22 3 4 26 17 51 29 77 36 160 113 207 192 42
72 102 209 102 235 0 7 9 41 20 75 44 140 84 432 121 898 18 230 21 325 17
620 -4 305 -8 363 -27 468 -12 66 -26 129 -31 140 -4 11 -20 53 -36 94 -29 75
-96 185 -143 233 -15 15 -48 43 -74 61 -26 18 -45 36 -41 39 3 3 -1 5 -8 5 -7
-1 -29 6 -48 15 -66 31 -105 46 -190 72 -119 36 -361 93 -450 106 -41 5 -120
17 -175 25 -220 33 -689 49 -940 32z m-1137 -1522 c0 -13 -8 -30 -16 -37 -12
-10 -14 -10 -8 0 5 8 0 12 -13 12 -14 0 -21 6 -21 18 0 24 9 32 35 32 17 0 23
-6 23 -25z m91 16 c7 -5 10 -14 7 -20 -4 -6 -12 -9 -17 -6 -5 3 -6 -1 -3 -9 7
-19 3 -20 -31 -4 -24 11 -32 28 -18 41 9 10 45 8 62 -2z m83 -16 c-4 -24 -32
-56 -32 -37 0 7 -7 12 -15 12 -8 0 -15 7 -15 15 0 8 5 15 11 15 5 0 7 5 4 11
-5 7 3 9 21 7 23 -2 28 -7 26 -23z m148 15 c-13 -8 -12 -10 3 -10 27 0 17 -33
-11 -35 -27 -2 -47 26 -30 43 7 7 21 12 33 12 16 0 17 -2 5 -10z m95 0 c-9
-14 21 -12 45 2 16 10 24 10 41 0 15 -10 24 -11 32 -3 14 14 57 14 57 1 0 -5
7 -10 15 -10 8 0 15 5 15 10 0 13 47 13 55 0 3 -6 3 -19 0 -30 -7 -23 -43 -27
-51 -5 -5 13 -10 13 -35 -2 -27 -16 -29 -16 -49 2 -11 10 -21 16 -23 14 -1 -2
-9 -12 -16 -21 -11 -14 -11 -21 -1 -33 16 -19 5 -65 -16 -65 -9 0 -18 9 -21
20 -3 11 -10 17 -16 13 -12 -7 -1 14 19 38 11 13 10 18 -6 32 -17 14 -21 14
-34 2 -18 -18 -38 -19 -54 -3 -14 14 -16 42 -3 33 5 -3 12 -1 16 5 3 5 13 10
21 10 8 0 12 -4 9 -10z m736 -2 c17 -10 23 -10 26 0 6 15 50 16 55 1 3 -9 9
-9 25 0 26 13 43 14 63 1 12 -7 12 -12 -4 -29 -23 -25 -34 -26 -57 -5 -17 15
-19 15 -34 0 -20 -20 -24 -20 -47 1 -17 15 -19 15 -37 -1 -15 -14 -24 -15 -40
-6 -34 18 -24 47 17 49 7 1 22 -5 33 -11z m244 -12 c0 -33 -9 -40 -33 -27 -17
9 -20 23 -13 49 1 1 11 2 24 2 18 0 23 -5 22 -24z m90 0 c0 -30 -29 -43 -50
-23 -9 10 -15 22 -13 29 3 7 13 2 26 -12 12 -13 22 -20 22 -15 0 5 -8 17 -17
28 -17 18 -17 19 7 16 17 -3 25 -10 25 -23z m604 15 c10 -7 11 -13 2 -30 -14
-25 -33 -27 -51 -6 -26 31 12 59 49 36z m-949 -86 c12 -22 12 -28 -3 -42 -16
-16 -18 -16 -39 4 -21 22 -21 23 -3 43 23 26 29 25 45 -5z m942 8 c24 -21 23
-40 -3 -53 -37 -20 -67 28 -37 58 15 15 18 15 40 -5z m-1994 -22 c3 -16 0 -21
-9 -15 -8 5 -11 3 -7 -8 4 -8 1 -15 -7 -15 -8 0 -11 7 -7 15 4 11 1 14 -11 9
-22 -8 -32 10 -16 29 18 22 53 13 57 -15z m0 -87 c4 -26 -22 -38 -49 -24 -27
15 -25 39 4 33 18 -4 19 -3 7 7 -12 9 -10 10 10 8 17 -2 26 -10 28 -24z m417
-4 c0 -29 -34 -40 -54 -17 -18 23 -2 49 28 45 20 -2 26 -8 26 -28z m641 8 c3
-27 -21 -42 -45 -28 -24 12 -26 21 -9 38 17 17 51 11 54 -10z m944 7 c10 -13
10 -19 -5 -35 -17 -19 -17 -21 -2 -38 22 -25 21 -38 -4 -56 l-21 -14 21 -11
c26 -15 27 -36 1 -54 l-20 -14 20 -18 c21 -19 27 -45 11 -45 -19 0 -22 -35 -4
-48 22 -16 7 -45 -25 -50 -28 -4 -41 36 -17 54 16 12 16 14 1 29 -19 20 -20
26 -4 59 9 22 8 29 -7 46 -10 11 -13 20 -7 20 16 0 26 40 13 53 -16 16 -14 36
5 55 15 14 15 17 0 27 -16 13 -21 37 -9 48 11 12 40 7 53 -8z m-2012 -76 c26
-42 -10 -78 -44 -44 -15 14 -12 25 11 52 14 17 18 16 33 -8z m422 6 c17 -20 5
-64 -16 -61 -9 1 -23 10 -30 20 -10 15 -10 21 4 36 21 23 27 24 42 5z m638 -8
c16 -19 3 -57 -19 -57 -11 0 -19 3 -20 8 0 4 -2 16 -4 27 -6 30 24 45 43 22z
m606 7 c19 -7 21 -38 4 -51 -34 -27 -74 10 -48 42 14 17 21 18 44 9z m93 -10
c7 -20 -8 -48 -28 -52 -22 -4 -43 36 -28 54 16 19 48 18 56 -2z m77 3 c16 -12
17 -16 5 -35 -17 -27 -31 -28 -54 -2 -18 20 -18 21 1 35 24 18 26 18 48 2z
m371 2 c-4 -6 0 -9 10 -7 10 2 20 -4 22 -12 4 -13 3 -13 -5 -1 -8 11 -11 9
-14 -9 -4 -31 -24 -36 -37 -11 -13 24 -5 51 16 51 8 0 11 -5 8 -11z m451 -13
c4 -28 -23 -51 -41 -36 -16 13 -20 42 -8 54 13 13 46 1 49 -18z m-2652 -79
c13 -21 -15 -53 -38 -44 -26 10 -31 36 -10 52 22 17 34 15 48 -8z m424 -20
c-2 -16 -10 -22 -28 -22 -28 0 -39 27 -20 50 17 21 52 1 48 -28z m634 27 c14
-14 20 -15 33 -4 12 10 21 10 41 1 17 -7 31 -8 44 -1 23 12 41 13 58 1 12 -7
12 -12 1 -30 -16 -25 -36 -27 -60 -5 -17 15 -19 15 -34 0 -20 -20 -34 -20 -41
-1 -8 19 -23 19 -44 0 -10 -9 -24 -13 -33 -9 -22 8 -26 36 -7 51 20 16 20 16
42 -3z m253 -23 c0 -17 -6 -25 -23 -27 -25 -4 -38 16 -28 42 10 25 51 14 51
-15z m274 16 c8 -10 6 -19 -9 -35 l-20 -22 21 -21 c20 -20 20 -22 3 -40 -9
-10 -23 -19 -30 -19 -19 0 -29 47 -15 64 9 11 9 19 0 34 -24 38 21 74 50 39z
m295 1 c-6 -9 -3 -9 9 0 18 15 37 8 37 -14 0 -15 -39 -35 -52 -27 -12 7 -9 53
3 53 5 0 7 -6 3 -12z m352 -3 c8 -19 -13 -45 -36 -45 -23 0 -34 28 -19 46 15
19 48 18 55 -1z m422 -9 c0 -16 -7 -26 -21 -30 -26 -6 -37 0 -37 23 0 23 9 31
35 31 17 0 23 -6 23 -24z m-2664 -69 c-1 -9 2 -14 7 -11 15 9 10 -23 -5 -35
-32 -27 -68 19 -39 51 19 21 39 19 37 -5z m426 8 c17 -21 4 -65 -19 -65 -20 0
-46 46 -31 55 6 4 14 3 20 0 6 -3 7 1 4 9 -8 20 10 21 26 1z m637 0 c21 -21 9
-65 -17 -65 -29 0 -42 32 -24 58 18 26 21 27 41 7z m1180 -39 c-9 -24 -34 -30
-52 -13 -19 20 -19 26 2 49 16 18 17 18 36 -1 12 -11 17 -26 14 -35z m399 28
c-5 -14 -4 -15 9 -4 13 10 15 9 15 -9 0 -11 -5 -21 -11 -21 -5 0 -7 -4 -4 -10
3 -5 -3 -10 -13 -10 -13 0 -21 9 -25 27 -6 33 -1 43 20 43 10 0 13 -6 9 -16z
m-2636 -79 c6 -8 10 -22 8 -32 -4 -24 -47 -24 -62 0 -9 15 -7 21 8 33 25 18
31 18 46 -1z m430 -26 c0 -10 -4 -21 -10 -24 -5 -3 -10 -15 -10 -26 0 -11 5
-17 10 -14 11 7 13 -15 4 -39 -7 -19 -21 -20 -38 -3 -14 13 -17 47 -5 47 3 0
9 9 12 20 3 13 0 20 -8 20 -26 0 -28 23 -5 42 26 21 50 10 50 -23z m630 26 c6
-8 9 -23 5 -35 -8 -26 -43 -24 -59 3 -9 15 -7 21 8 33 25 18 31 18 46 -1z
m525 -5 c11 -18 -6 -50 -26 -50 -22 0 -34 22 -25 45 6 17 42 20 51 5z m639 4
c21 -8 20 -28 0 -49 -15 -15 -15 -17 1 -35 22 -25 12 -55 -20 -56 -33 -2 -43
30 -19 58 18 18 18 20 1 29 -17 10 -23 40 -10 52 8 9 27 9 47 1z m436 -24 c0
-16 -4 -30 -10 -30 -5 0 -10 -7 -10 -15 0 -8 5 -15 10 -15 6 0 10 -9 10 -20 0
-11 -5 -20 -11 -20 -5 0 -7 -5 -3 -11 4 -7 -2 -9 -17 -7 -30 4 -37 42 -13 69
16 17 16 19 1 19 -12 0 -17 9 -17 30 0 27 3 30 30 30 27 0 30 -3 30 -30z
m-1598 -65 c9 -21 9 -29 -3 -41 -32 -31 -73 14 -43 47 23 25 32 24 46 -6z
m528 -15 c0 -10 -7 -26 -16 -35 -15 -15 -15 -17 1 -29 24 -17 12 -54 -18 -52
-24 1 -31 30 -14 54 7 8 6 17 -1 24 -15 15 -15 51 0 66 15 15 48 -3 48 -28z
m421 -19 c-13 -24 -31 -27 -49 -9 -16 16 -15 34 4 53 16 15 18 15 36 -3 17
-16 18 -23 9 -41z m-2011 34 c16 -19 3 -55 -20 -55 -11 0 -25 10 -31 22 -10
18 -8 24 7 35 23 17 29 16 44 -2z m2233 -89 c15 15 6 -20 -9 -37 -13 -14 -21
-16 -35 -8 -24 12 -24 37 -1 59 16 16 18 16 28 -2 5 -10 13 -15 17 -12z
m-1803 -16 c0 -16 -6 -30 -12 -33 -10 -4 -10 -7 0 -18 15 -16 16 -49 1 -49 -5
0 -7 -4 -4 -10 3 -5 -1 -10 -9 -10 -17 0 -46 26 -46 42 0 6 3 8 7 5 3 -4 12 5
20 19 16 33 16 34 -1 34 -22 0 -28 31 -9 45 26 19 53 7 53 -25z m630 25 c13
-16 4 -59 -11 -50 -19 12 -8 -18 13 -37 l22 -19 -21 -20 c-18 -18 -23 -19 -42
-8 -25 17 -26 27 -4 51 15 17 15 19 0 36 -21 23 -21 32 1 48 22 17 27 17 42
-1z m941 5 c27 -15 24 -39 -8 -51 -20 -7 -28 -6 -35 3 -11 18 -10 32 4 46 15
15 15 15 39 2z m-1994 -16 c3 -8 -2 -23 -11 -32 -19 -20 -49 -7 -54 24 -3 16
-1 17 7 4 9 -13 11 -13 11 3 0 22 38 23 47 1z m2568 6 c13 -20 -6 -50 -31 -50
-26 0 -40 20 -30 45 6 17 51 20 61 5z m85 -11 c0 -20 -19 -36 -42 -36 -13 0
-18 8 -18 29 0 25 3 28 30 26 20 -2 30 -8 30 -19z m-6 -71 c4 4 6 -6 4 -23 -3
-29 -38 -51 -38 -25 0 7 7 9 16 6 9 -3 12 -2 9 5 -4 5 -15 7 -26 4 -22 -7 -23
-6 -8 32 10 26 12 27 23 11 7 -10 16 -14 20 -10z m-2736 0 c10 -10 17 -10 32
0 28 17 53 16 46 -4 -4 -9 -2 -13 5 -8 7 4 10 -1 7 -11 -6 -31 -34 -42 -57
-21 -19 17 -21 17 -36 2 -20 -20 -29 -20 -45 -1 -28 33 17 74 48 43z m170 -13
c4 -32 -14 -52 -35 -39 -23 14 -29 44 -11 55 20 14 43 6 46 -16z m1060 13 c9
-9 18 -8 37 2 22 12 28 12 42 -3 11 -10 13 -17 5 -17 -6 0 -9 -6 -6 -14 9 -24
-15 -28 -45 -7 -29 21 -29 21 -34 1 -7 -26 -33 -26 -47 1 -19 35 20 65 48 37z
m167 -23 c0 -22 -5 -31 -20 -33 -11 -2 -17 -1 -13 3 4 5 0 14 -9 20 -15 11
-15 15 -4 29 22 26 46 16 46 -19z m64 19 c-12 -15 -11 -16 9 -10 16 6 22 3 22
-8 0 -9 -7 -16 -16 -16 -8 0 -12 -4 -9 -10 10 -16 -12 -12 -29 6 -21 20 -20
31 2 43 26 16 36 13 21 -5z m285 10 c19 -7 21 -35 4 -52 -14 -14 -42 -16 -33
-2 3 6 -1 10 -9 10 -19 0 -21 21 -4 38 14 14 20 14 42 6z m85 -8 c15 -18 -2
-56 -24 -56 -21 0 -35 31 -24 52 12 22 32 23 48 4z m91 -1 c15 -18 7 -43 -16
-52 -11 -4 -24 2 -36 17 -17 22 -17 23 -1 36 24 18 38 17 53 -1z m80 -6 c8
-15 8 -24 0 -34 -24 -29 -67 3 -49 37 13 24 36 23 49 -3z m398 -5 c4 -25 -20
-47 -42 -38 -14 5 -16 25 -7 62 1 2 11 2 24 0 13 -2 23 -11 25 -24z m79 11
c28 -29 -11 -71 -42 -45 -18 15 -20 46 -2 53 21 9 28 8 44 -8z m79 0 c21 -21
14 -49 -13 -53 -17 -3 -24 3 -29 22 -10 43 13 60 42 31z m-2569 -377 c-2 -35
-3 -9 -3 57 0 66 1 94 3 63 2 -32 2 -86 0 -120z m110 166 c-3 -3 -12 -4 -19
-1 -8 3 -5 6 6 6 11 1 17 -2 13 -5z m2601 -86 c-1 -95 -5 -83 -10 30 -2 34 0
62 5 62 4 0 6 -42 5 -92z m-1793 -3 c-10 -9 -25 -28 -31 -43 l-12 -27 -1 34
c-1 19 2 31 5 28 4 -3 16 0 28 8 27 19 37 19 11 0z m225 11 c0 -2 -7 -7 -16
-10 -8 -3 -12 -2 -9 4 6 10 25 14 25 6z m195 -6 c-3 -5 -12 -10 -18 -10 -7 0
-6 4 3 10 19 12 23 12 15 0z m88 -18 c9 -8 17 -22 17 -31 -1 -12 -3 -11 -12 4
-6 11 -20 28 -32 38 -11 10 -14 15 -6 11 8 -4 23 -14 33 -22z m642 18 c-3 -5
-12 -10 -18 -10 -7 0 -6 4 3 10 19 12 23 12 15 0z m81 -12 l19 -23 -25 20
c-14 11 -27 21 -29 22 -2 2 0 3 6 3 5 0 18 -10 29 -22z m304 17 c0 -2 -10 -10
-22 -16 -21 -11 -22 -11 -9 4 13 16 31 23 31 12z m-1890 -25 c-12 -12 -18 -25
-15 -30 4 -6 1 -10 -4 -10 -6 0 -11 5 -11 12 0 14 30 48 42 48 4 0 -1 -9 -12
-20z m670 -1 c0 -11 -4 -18 -10 -14 -5 3 -7 12 -3 20 7 21 13 19 13 -6z m719
12 c7 -5 12 -14 9 -21 -2 -7 -10 -4 -22 9 -19 21 -12 28 13 12z m-1577 -52 c5
-3 2 -12 -7 -19 -13 -11 -15 -8 -14 26 1 22 3 30 6 19 3 -11 10 -23 15 -26z
m308 21 c0 -14 -6 -20 -22 -19 -17 1 -19 2 -5 6 9 2 17 11 17 19 0 8 2 14 5
14 3 0 5 -9 5 -20z m1136 -30 c1 -22 -2 -37 -7 -34 -10 6 -12 35 -3 58 9 22 9
21 10 -24z m209 30 c-3 -5 0 -10 7 -10 10 0 10 -2 -1 -9 -8 -6 -11 -16 -6 -31
5 -15 4 -20 -4 -16 -12 8 -15 58 -4 69 10 10 15 8 8 -3z m384 -21 c-6 -3 -8
-19 -5 -35 5 -28 5 -27 -5 3 -13 36 -4 78 11 53 5 -9 5 -17 -1 -21z m135 16
c3 -9 0 -15 -9 -15 -9 0 -12 6 -9 15 4 8 7 15 9 15 2 0 5 -7 9 -15z m-374 -5
c0 -5 -5 -10 -11 -10 -5 0 -7 5 -4 10 3 6 8 10 11 10 2 0 4 -4 4 -10z m313 -7
c-7 -2 -21 -2 -30 0 -10 3 -4 5 12 5 17 0 24 -2 18 -5z m114 -30 c-3 -10 -5
-4 -5 12 0 17 2 24 5 18 2 -7 2 -21 0 -30z m-2154 20 c-7 -2 -21 -2 -30 0 -10
3 -4 5 12 5 17 0 24 -2 18 -5z m1797 3 c0 -3 -4 -8 -10 -11 -5 -3 -10 -1 -10
4 0 6 5 11 10 11 6 0 10 -2 10 -4z m37 -2 c-3 -3 -12 -4 -19 -1 -8 3 -5 6 6 6
11 1 17 -2 13 -5z m-1383 -49 c13 -20 13 -23 2 -19 -11 4 -16 -4 -19 -28 -3
-23 -4 -18 -5 20 -1 28 0 52 2 52 2 0 11 -11 20 -25z m722 -23 c-12 -11 -18 7
-10 30 l8 23 4 -23 c2 -13 1 -26 -2 -30z m-386 29 c0 -5 -7 -12 -16 -15 -14
-5 -15 -4 -4 9 14 17 20 19 20 6z m209 -23 c-1 -24 -3 -27 -6 -10 -3 14 -9 20
-16 15 -7 -4 -6 1 2 10 19 24 21 22 20 -15z m521 18 c0 -7 -9 -16 -21 -19 -20
-5 -20 -5 -3 14 20 23 24 23 24 5z m-1399 -13 c13 -16 12 -17 -3 -4 -10 7 -18
15 -18 17 0 8 8 3 21 -13z m1494 -11 c-3 -3 -11 0 -18 7 -9 10 -8 11 6 5 10
-3 15 -9 12 -12z"/>
</g>
</svg>
